<?xml version="1.0" encoding="utf-8"?>
<!-- Generator: Adobe Illustrator 16.0.4, SVG Export Plug-In . SVG Version: 6.00 Build 0)  -->
<!DOCTYPE svg PUBLIC "-//W3C//DTD SVG 1.1//EN" "http://www.w3.org/Graphics/SVG/1.1/DTD/svg11.dtd">
<svg version="1.1" id="Layer_1" xmlns="http://www.w3.org/2000/svg" xmlns:xlink="http://www.w3.org/1999/xlink" x="0px" y="0px"
	 width="291.924px" height="72.955px" viewBox="0 0 291.924 72.955" enable-background="new 0 0 291.924 72.955"
	 xml:space="preserve">
<g>
	<g>
		<linearGradient id="SVGID_1_" gradientUnits="userSpaceOnUse" x1="195.0527" y1="121.5566" x2="96.4165" y2="-49.2863">
			<stop  offset="0" style="stop-color:#4285F4"/>
			<stop  offset="0.6063" style="stop-color:#00CE7F"/>
		</linearGradient>
		<path fill="url(#SVGID_1_)" d="M30.036,5.66c-1.167-1.783-2.828-3.172-4.988-4.167C22.888,0.499,20.023,0,16.458,0
			c-3.43,0-6.208,0.566-8.332,1.698C6,2.83,4.336,4.34,3.138,6.226c-1.201,1.888-2.023,4.031-2.469,6.431
			C0.222,15.059,0,17.528,0,20.065V55.36c0,5.282,1.25,9.535,3.755,12.759c2.502,3.226,6.702,4.836,12.601,4.836
			c6.034,0,10.303-1.731,12.807-5.197c2.502-3.462,3.754-8.386,3.754-14.765V19.859c0-2.881-0.189-5.521-0.565-7.923
			C31.973,9.537,31.202,7.444,30.036,5.66z M24.791,53.96c0,1.437-0.121,2.839-0.36,4.205c-0.241,1.366-0.669,2.58-1.286,3.641
			c-0.617,1.06-1.475,1.931-2.572,2.613c-1.097,0.685-2.503,1.024-4.217,1.024c-1.715,0-3.104-0.325-4.167-0.974
			c-1.064-0.649-1.903-1.486-2.52-2.512s-1.028-2.118-1.234-3.28c-0.206-1.161-0.309-2.257-0.309-3.282V20.739
			c0-1.025,0.052-2.308,0.155-3.846c0.102-1.538,0.427-2.991,0.977-4.357c0.548-1.366,1.371-2.547,2.469-3.537
			c1.096-0.99,2.674-1.487,4.731-1.487c1.852,0,3.343,0.36,4.474,1.078c1.132,0.717,1.971,1.605,2.521,2.666
			c0.548,1.059,0.908,2.238,1.08,3.537c0.17,1.298,0.257,2.564,0.257,3.794V53.96L24.791,53.96z M43.202,72.233h8.126V39.616h19.544
			v-7.512H51.329V8.129h22.527V0.618H43.202V72.233z M80.85,72.233h8.126V39.616h19.544v-7.512H88.976V8.129h22.528V0.618H80.85
			V72.233z M118.086,43.114h26.642v-6.894h-26.642V43.114z M169.931,40.646h8.33v17.081c0,2.4-0.755,4.287-2.262,5.657
			c-1.509,1.375-3.566,2.059-6.172,2.059h-0.103c-1.646,0-2.967-0.342-3.961-1.028c-0.995-0.687-1.784-1.526-2.365-2.522
			c-0.584-0.992-0.979-2.091-1.184-3.293c-0.206-1.197-0.308-2.313-0.308-3.344V19.14c0-1.235,0.102-2.538,0.308-3.911
			c0.205-1.371,0.6-2.624,1.184-3.755c0.581-1.132,1.389-2.074,2.417-2.83c1.029-0.754,2.366-1.132,4.012-1.132
			c2.88,0,4.919,0.926,6.12,2.778c1.199,1.853,1.765,4.357,1.697,7.512l8.127-1.955c-0.139-4.87-1.425-8.729-3.857-11.576
			C179.479,1.425,175.484,0,169.931,0c-3.292,0-6.002,0.583-8.127,1.749c-2.126,1.167-3.772,2.694-4.938,4.58
			c-1.167,1.887-1.972,4.048-2.417,6.482c-0.447,2.436-0.668,4.923-0.668,7.461v35.396c0,5.488,1.337,9.741,4.012,12.76
			c2.674,3.02,6.72,4.527,12.138,4.527c2.262,0,4.404-0.344,6.429-1.029c2.021-0.685,3.771-1.714,5.245-3.088
			c1.475-1.369,2.64-3.068,3.498-5.092c0.856-2.024,1.286-4.374,1.286-7.049V33.545h-16.458V40.646L169.931,40.646z M227.438,31.899
			c1.227-3.155,1.843-6.792,1.843-10.907c0-6.858-1.368-11.97-4.102-15.332c-2.736-3.36-7.008-5.042-12.818-5.042h-15.688v71.615
			h8.126V40.852h7.683l10.14,31.383h8.307l-10.865-33.03C223.749,37.491,226.208,35.055,227.438,31.899z M216.32,32.465
			c-1.234,0.583-2.778,0.874-4.629,0.874H204.8V8.129h6.171c2.058,0,3.737,0.309,5.041,0.926c1.303,0.618,2.348,1.493,3.138,2.625
			c0.787,1.131,1.32,2.487,1.595,4.064c0.273,1.579,0.411,3.328,0.411,5.248c0,1.852-0.138,3.534-0.411,5.042
			c-0.274,1.509-0.772,2.813-1.492,3.91C218.532,31.042,217.555,31.883,216.32,32.465z M239.566,72.233h8.126V0.618h-8.126V72.233z
			 M290.795,10.29c-0.958-3.499-2.667-5.984-5.128-7.46c-2.462-1.474-5.812-2.212-10.048-2.212h-16.612v71.616h15.688
			c3.623,0,6.854-0.753,9.69-2.262c2.837-1.508,4.904-4.287,6.205-8.334c0.887-2.812,1.333-6.261,1.333-10.342V20.991
			C291.924,16.739,291.547,13.171,290.795,10.29z M283.797,54.041c0,3.425-0.72,6.06-2.16,7.909
			c-1.439,1.848-3.841,2.773-7.201,2.773h-7.303V8.129h7.303c3.498,0,5.932,0.925,7.304,2.773s2.059,4.383,2.059,7.6L283.797,54.041
			L283.797,54.041z"/>
	</g>
</g>
</svg>
